<svg width="116" height="116" viewBox="0 0 116 116" fill="none" xmlns="http://www.w3.org/2000/svg">
<path d="M23.102 91.6759C23.102 90.6099 22.2379 89.7458 21.172 89.7458C20.1061 89.7458 19.242 90.6099 19.242 91.6759C19.242 98.0604 25.1479 103.337 32.7521 104.113V106.151C32.7521 107.217 33.6162 108.081 34.6821 108.081C35.7481 108.081 36.6122 107.217 36.6122 106.151V104.113C44.2164 103.341 50.1223 98.0604 50.1223 91.6759C50.1223 85.2914 44.2164 80.0147 36.6122 79.2388V61.8918C42.0799 62.5828 46.2622 66.1514 46.2622 70.4457C46.2622 71.5116 47.1263 72.3757 48.1923 72.3757C49.2582 72.3757 50.1223 71.5116 50.1223 70.4457C50.1223 64.0612 44.2164 58.7845 36.6122 58.0086V55.9705C36.6122 54.9046 35.7481 54.0405 34.6821 54.0405C33.6162 54.0405 32.7521 54.9046 32.7521 55.9705V58.0086C25.1479 58.7806 19.242 64.0612 19.242 70.4457C19.242 76.8302 25.1479 82.1068 32.7521 82.8827V100.23C27.2844 99.5388 23.102 95.9701 23.102 91.6759ZM46.2622 91.6759C46.2622 95.9701 42.0799 99.5388 36.6122 100.23V83.122C42.0799 83.813 46.2622 87.3816 46.2622 91.6759ZM23.102 70.4457C23.102 66.1514 27.2844 62.5828 32.7521 61.8918V78.9995C27.2844 78.3086 23.102 74.74 23.102 70.4457Z" fill="#374C5B"/>
<path d="M108.023 0H36.6122C32.3485 0 28.8921 3.45639 28.8921 7.72007V40.7234C28.8921 41.7893 29.7562 42.6534 30.8221 42.6534C31.888 42.6534 32.7521 41.7893 32.7521 40.7234V7.72007C32.7521 5.58823 34.4803 3.86003 36.6122 3.86003H108.023C110.155 3.86003 111.883 5.58823 111.883 7.72007V108.081C111.883 110.213 110.155 111.941 108.023 111.941H58.4407C57.3747 111.941 56.5106 112.805 56.5106 113.871C56.5106 114.937 57.3747 115.801 58.4407 115.801H108.023C112.286 115.801 115.743 112.345 115.743 108.081V7.72007C115.743 3.45639 112.286 0 108.023 0Z" fill="#F15C27"/>
<path d="M108.023 11.5801C108.023 9.44829 106.295 7.72009 104.163 7.72009H40.4722C38.3404 7.72009 36.6122 9.44829 36.6122 11.5801V27.0203C36.6122 29.1521 38.3404 30.8803 40.4722 30.8803H104.163C106.295 30.8803 108.023 29.1521 108.023 27.0203V11.5801ZM76.9901 27.0203L87.7982 11.5801H94.6652L83.8571 27.0203H76.9901ZM40.4722 11.5801H83.0851L72.277 27.0203H40.4722V11.5801ZM104.163 27.0203H88.5702L99.3783 11.5801H104.163V27.0203Z" fill="#F15C27"/>
<path d="M64.5396 106.151C64.5396 107.217 65.4036 108.081 66.4696 108.081H102.233C105.431 108.081 108.023 105.489 108.023 102.291V92.6409C108.023 89.4431 105.431 86.8508 102.233 86.8508H74.4598C73.3939 86.8508 72.5298 87.7149 72.5298 88.7808C72.5298 89.8468 73.3939 90.7109 74.4598 90.7109H102.233C103.299 90.7109 104.163 91.575 104.163 92.6409V102.291C104.163 103.357 103.299 104.221 102.233 104.221H66.4696C65.4036 104.221 64.5396 105.085 64.5396 106.151Z" fill="#F15C27"/>
<path d="M108.023 67.5505C108.023 64.3528 105.43 61.7605 102.233 61.7605H92.5827C89.3849 61.7605 86.7926 64.3528 86.7926 67.5505V77.2006C86.7926 80.3984 89.3849 82.9907 92.5827 82.9907H102.233C105.43 82.9907 108.023 80.3984 108.023 77.2006V67.5505ZM104.163 77.2006C104.163 78.2666 103.299 79.1307 102.233 79.1307H92.5827C91.5167 79.1307 90.6526 78.2666 90.6526 77.2006V67.5505C90.6526 66.4846 91.5167 65.6205 92.5827 65.6205H102.233C103.299 65.6205 104.163 66.4846 104.163 67.5505V77.2006Z" fill="#F15C27"/>
<path d="M108.023 42.4603C108.023 39.2626 105.43 36.6703 102.233 36.6703H92.5827C89.3849 36.6703 86.7926 39.2626 86.7926 42.4603V52.1104C86.7926 55.3082 89.3849 57.9005 92.5827 57.9005H102.233C105.43 57.9005 108.023 55.3082 108.023 52.1104V42.4603ZM104.163 52.1104C104.163 53.1763 103.299 54.0404 102.233 54.0404H92.5827C91.5167 54.0404 90.6526 53.1763 90.6526 52.1104V42.4603C90.6526 41.3944 91.5167 40.5303 92.5827 40.5303H102.233C103.299 40.5303 104.163 41.3944 104.163 42.4603V52.1104Z" fill="#F15C27"/>
<path d="M71.2946 65.6205H77.1425C78.2084 65.6205 79.0725 66.4846 79.0725 67.5505V77.2006C79.0725 78.2666 78.2084 79.1307 77.1425 79.1307H75.2125C74.1466 79.1307 73.2825 79.9948 73.2825 81.0607C73.2825 82.1266 74.1466 82.9907 75.2125 82.9907H77.1425C80.3403 82.9907 82.9326 80.3984 82.9326 77.2006V67.5505C82.9326 64.3528 80.3403 61.7605 77.1425 61.7605H71.2946C70.2287 61.7605 69.3646 62.6246 69.3646 63.6905C69.3646 64.7564 70.2287 65.6205 71.2946 65.6205Z" fill="#F15C27"/>
<path d="M82.9326 52.1104V42.4603C82.9326 39.2626 80.3403 36.6703 77.1425 36.6703H67.4924C64.2947 36.6703 61.7024 39.2626 61.7024 42.4603V52.1104C61.7024 55.3082 64.2947 57.9005 67.4924 57.9005H77.1425C80.3403 57.9005 82.9326 55.3082 82.9326 52.1104ZM65.5624 52.1104V42.4603C65.5624 41.3944 66.4265 40.5303 67.4924 40.5303H77.1425C78.2084 40.5303 79.0725 41.3944 79.0725 42.4603V52.1104C79.0725 53.1763 78.2084 54.0404 77.1425 54.0404H67.4924C66.4265 54.0404 65.5624 53.1763 65.5624 52.1104Z" fill="#F15C27"/>
<path d="M55.9124 48.5013C56.9783 48.5013 57.8424 47.6372 57.8424 46.5713V42.4603C57.8424 39.2626 55.2501 36.6703 52.0523 36.6703H42.4023C40.1941 36.6754 38.1811 37.9361 37.2124 39.9204C36.7472 40.8798 37.1477 42.0346 38.107 42.4999C39.0663 42.9652 40.2212 42.5647 40.6865 41.6053C41.0073 40.9498 41.6724 40.5331 42.4023 40.5303H52.0523C53.1183 40.5303 53.9824 41.3944 53.9824 42.4603V46.5713C53.9824 47.6372 54.8465 48.5013 55.9124 48.5013Z" fill="#F15C27"/>
<path d="M16.3702 51.5314C15.4641 52.0942 15.1859 53.2849 15.7487 54.191C16.3115 55.097 17.5022 55.3753 18.4083 54.8124C32.2283 46.2226 50.3402 49.8062 59.8479 63.0116C69.3555 76.217 67.0089 94.5303 54.479 104.912C41.949 115.294 23.5187 114.195 12.3109 102.398C1.10311 90.6014 0.948924 72.139 11.9581 60.1567C12.447 59.6532 12.6241 58.924 12.4205 58.2523C12.2169 57.5807 11.6648 57.0725 10.9787 56.9252C10.2925 56.7778 9.58044 57.0146 9.11908 57.5434C-3.20293 70.977 -3.01556 91.6588 9.54783 104.867C22.1112 118.075 42.7578 119.296 56.7906 107.661C70.8235 96.0264 73.4477 75.5109 62.7953 60.7184C52.1428 45.9259 31.8536 41.9109 16.3702 51.5314Z" fill="#374C5B"/>
</svg>
