<svg width="121" height="116" viewBox="0 0 121 116" fill="none" xmlns="http://www.w3.org/2000/svg">
<path d="M120.854 65.3646C119.96 59.1714 115.094 54.3062 108.901 53.4123V49.7469C108.901 39.6338 101.214 31.3998 91.7638 31.3998C82.5863 31.3998 74.9027 39.3838 74.6264 49.1985H74.7434L74.6264 49.2186V88.9512C74.6264 101.653 65.1303 111.968 53.4567 111.968C41.7832 111.968 32.287 101.639 32.287 88.9512V85.5096C35.2105 85.5096 38.3355 83.3906 38.3355 77.4449V72.3743C51.2753 69.0657 60.5133 57.9547 60.5133 45.3577V41.154H56.481L56.3963 14.9136C56.3671 10.0564 52.8816 5.90919 48.1018 5.04451C47.0708 1.88594 43.6743 0.161113 40.5155 1.19238C37.3569 2.2234 35.6321 5.61987 36.6634 8.7787C37.6944 11.9373 41.0909 13.6621 44.2497 12.6308C45.941 12.0787 47.3011 10.8062 47.9647 9.15547C50.5477 9.89036 52.337 12.2402 52.3579 14.9257L52.4487 41.154H48.4163V45.4162C48.2556 52.4291 43.5539 58.5235 36.8113 60.4587C33.2036 61.6034 29.3301 61.6034 25.7224 60.4587C18.9877 58.5169 14.2966 52.4236 14.1416 45.4162V41.154H8.09309V14.9439C8.10468 12.2188 9.93738 9.83769 12.569 9.12926C13.7961 12.2531 17.3231 13.7904 20.4469 12.5633C23.5707 11.3362 25.108 7.80892 23.8809 4.68538C22.6538 1.56184 19.1265 0.0242659 16.003 1.25135C14.3104 1.91643 13.0045 3.30431 12.444 5.03443C7.61199 5.86005 4.07412 10.0418 4.06077 14.9439V41.154H0.0284424V45.3476C0.0284424 57.9587 9.27255 69.0738 22.2062 72.3743V77.4449C22.2062 83.3906 25.3313 85.5096 28.2547 85.5096V88.9512C28.2547 103.871 39.5593 116 53.4567 116C67.3542 116 78.6588 103.857 78.6588 88.9512V49.3154C78.8604 41.6641 84.7436 35.4382 91.7638 35.4382C98.9898 35.4382 104.869 41.8576 104.869 49.7529V53.4123C97.1543 54.5257 91.8031 61.6823 92.9166 69.3969C94.03 77.1115 101.187 82.4626 108.901 81.3492C116.616 80.2358 121.967 73.0789 120.854 65.3646ZM42.3679 8.89538C41.2544 8.89538 40.3517 7.99265 40.3517 6.87922C40.3517 5.76579 41.2544 4.86306 42.3679 4.86306C43.4813 4.86306 44.384 5.76579 44.384 6.87922C44.384 7.99265 43.4813 8.89538 42.3679 8.89538ZM18.1739 4.86306C19.2873 4.86306 20.1901 5.76579 20.1901 6.87922C20.1901 7.99265 19.2873 8.89538 18.1739 8.89538C17.0605 8.89538 16.1577 7.99265 16.1577 6.87922C16.1577 5.76579 17.0605 4.86306 18.1739 4.86306ZM4.06077 45.3476V45.1863H10.1093V45.4162C10.2605 54.1792 16.0905 61.8267 24.5006 64.2935C28.9077 65.6889 33.6381 65.6889 38.0452 64.2935C46.4594 61.83 52.2947 54.1822 52.4487 45.4162V45.1863H56.481V45.3476C56.481 56.5635 47.8357 66.4326 35.9161 68.8198C33.1172 69.3803 30.2502 69.5209 27.4099 69.2371C26.4749 69.1464 25.5455 69.0058 24.6256 68.8157C12.7061 66.4326 4.06077 56.5635 4.06077 45.3476ZM28.2547 81.4772C26.4402 81.4772 26.2386 78.6546 26.2386 77.4449V73.1666C26.3998 73.1868 26.5652 73.1948 26.7285 73.211C26.9301 73.2332 27.1317 73.2493 27.3333 73.2674C28.287 73.3521 29.2487 73.4086 30.2185 73.4106H30.3193C31.287 73.4106 32.2467 73.3521 33.1943 73.2674C33.3959 73.2493 33.6096 73.2332 33.8173 73.211C33.9766 73.1928 34.1419 73.1868 34.3012 73.1666V77.4449C34.3012 78.6546 34.0996 81.4772 32.285 81.4772H28.2547ZM106.885 77.4449C101.318 77.4449 96.8042 72.9315 96.8042 67.3641C96.8042 61.7967 101.318 57.2833 106.885 57.2833C112.452 57.2833 116.966 61.7967 116.966 67.3641C116.959 72.929 112.45 77.4384 106.885 77.4449Z" fill="#7FBD42"/>
<path d="M106.885 61.3157C103.545 61.3157 100.837 64.0236 100.837 67.3642C100.837 70.7047 103.545 73.4126 106.885 73.4126C110.226 73.4126 112.934 70.7047 112.934 67.3642C112.934 64.0236 110.226 61.3157 106.885 61.3157ZM106.885 69.3803C105.772 69.3803 104.869 68.4776 104.869 67.3642C104.869 66.2507 105.772 65.348 106.885 65.348C107.999 65.348 108.901 66.2507 108.901 67.3642C108.901 68.4776 107.999 69.3803 106.885 69.3803Z" fill="#374C5B"/>
</svg>
