<svg width="115" height="118" viewBox="0 0 115 118" fill="none" xmlns="http://www.w3.org/2000/svg">
<path d="M90.8126 39.625H30.6687L59.2449 11.0488C59.6091 10.6846 59.8126 10.1925 59.8126 9.67904C59.8126 9.1656 59.6091 8.67154 59.2449 8.30922L53.7656 2.82997C51.5685 0.632848 47.74 0.632848 45.5448 2.82997L41.1196 7.25522L43.8592 9.99485L48.2864 5.5696C49.0168 4.83722 50.2936 4.83722 51.026 5.5696L55.1374 9.67904L8.55406 56.2604L4.44462 52.149C4.07844 51.7848 3.87694 51.2985 3.87694 50.7792C3.87694 50.26 4.07844 49.7756 4.44462 49.4094L39.9842 13.8698L37.2446 11.1302L34.5844 13.7904L31.8448 11.0508C29.5759 8.78197 25.8889 8.78391 23.6239 11.0508L9.92388 24.7508C7.657 27.0177 7.657 30.7048 9.92388 32.9717L12.6635 35.7113L1.70306 46.6717C0.6045 47.7703 0 49.2292 0 50.7831C0 52.337 0.6045 53.7959 1.70306 54.8925L7.18231 60.3737C7.54656 60.7341 8.04062 60.9375 8.55406 60.9375C9.0675 60.9375 9.56156 60.7341 9.92388 60.3699L20.2275 50.0662L28.3863 112.072C28.7661 114.951 31.2422 117.125 34.1484 117.125H77.7267C80.6329 117.125 83.1091 114.951 83.4907 112.07L90.1848 61.1894L86.3428 60.6837L79.6487 111.562C79.5208 112.525 78.6954 113.25 77.7267 113.25H34.1484C33.1797 113.25 32.3543 112.525 32.2284 111.564L23.6821 46.6117L26.7937 43.5H88.6038L87.3619 52.9357L91.2039 53.4413L92.7346 41.8163C92.8082 41.2622 92.6396 40.7062 92.2715 40.2857C91.9014 39.8653 91.3706 39.625 90.8126 39.625ZM12.6654 30.2301C11.9098 29.4745 11.9098 28.2461 12.6654 27.4885L26.3655 13.7885C27.1192 13.0348 28.3495 13.0328 29.1071 13.7885L31.8467 16.5281L15.407 32.9678L12.6654 30.2301Z" fill="#F15C27"/>
<path d="M50.1251 57.0625V99.6875C50.1251 102.892 52.7329 105.5 55.9376 105.5C59.1422 105.5 61.7501 102.892 61.7501 99.6875V57.0625C61.7501 53.8579 59.1422 51.25 55.9376 51.25C52.7329 51.25 50.1251 53.8579 50.1251 57.0625ZM57.8751 57.0625V99.6875C57.8751 100.755 57.0051 101.625 55.9376 101.625C54.87 101.625 54.0001 100.755 54.0001 99.6875V57.0625C54.0001 55.9949 54.87 55.125 55.9376 55.125C57.0051 55.125 57.8751 55.9949 57.8751 57.0625Z" fill="#F15C27"/>
<path d="M34.6251 57.0625V99.6875C34.6251 102.892 37.2329 105.5 40.4376 105.5C43.6422 105.5 46.2501 102.892 46.2501 99.6875V57.0625C46.2501 53.8579 43.6422 51.25 40.4376 51.25C37.2329 51.25 34.6251 53.8579 34.6251 57.0625ZM42.3751 57.0625V99.6875C42.3751 100.755 41.5051 101.625 40.4376 101.625C39.37 101.625 38.5001 100.755 38.5001 99.6875V57.0625C38.5001 55.9949 39.37 55.125 40.4376 55.125C41.5051 55.125 42.3751 55.9949 42.3751 57.0625Z" fill="#F15C27"/>
<path d="M65.6251 57.0625V99.6875C65.6251 102.892 68.2329 105.5 71.4376 105.5C74.6422 105.5 77.2501 102.892 77.2501 99.6875V57.0625C77.2501 53.8579 74.6422 51.25 71.4376 51.25C68.2329 51.25 65.6251 53.8579 65.6251 57.0625ZM73.3751 57.0625V99.6875C73.3751 100.755 72.5051 101.625 71.4376 101.625C70.37 101.625 69.5001 100.755 69.5001 99.6875V57.0625C69.5001 55.9949 70.37 55.125 71.4376 55.125C72.5051 55.125 73.3751 55.9949 73.3751 57.0625Z" fill="#F15C27"/>
<path d="M66.0959 22.2456L58.3459 20.3081C57.5883 20.1202 56.792 20.403 56.327 21.025L50.5145 28.775C50.1696 29.2342 50.0456 29.8232 50.1793 30.3831C50.3111 30.943 50.685 31.4138 51.1985 31.6715L58.9485 35.5465C59.2139 35.6802 59.5123 35.75 59.8126 35.75H69.5001C70.1433 35.75 70.7439 35.4303 71.1043 34.8994C71.4647 34.3685 71.5383 33.6904 71.3 33.0937L67.425 23.4062C67.1925 22.8288 66.6985 22.3967 66.0959 22.2456ZM60.2698 31.875L55.0056 29.2438L58.654 24.3807L64.1933 25.766L66.6384 31.875H60.2698Z" fill="#374C5B"/>
<path d="M90.5297 19.227L88.6716 15.5089C88.2803 14.7262 87.4103 14.3038 86.5578 14.4762L76.8703 16.4137C75.9636 16.5939 75.3126 17.3883 75.3126 18.3125V22.1875C75.3126 22.3463 75.3319 22.5033 75.3707 22.6583L77.3082 30.4083C77.5252 31.2782 78.3079 31.875 79.1856 31.875C79.267 31.875 79.3464 31.8711 79.4278 31.8595L94.9278 29.922C95.6137 29.8367 96.2008 29.393 96.4701 28.7556C96.7394 28.1182 96.6503 27.3877 96.2356 26.8355L90.5297 19.227ZM80.6504 27.8023L79.1876 21.9492V19.9012L85.8661 18.5663L87.141 21.118C87.1933 21.2226 87.2553 21.3214 87.3251 21.4144L91.1342 26.4945L80.6504 27.8023Z" fill="#374C5B"/>
<path d="M79.1876 0.875H83.0626V4.75H79.1876V0.875Z" fill="#374C5B"/>
<path d="M96.2453 12.901L98.6071 15.9739C102.891 12.684 108.388 11.4053 113.683 12.4612L114.444 8.66179C108.043 7.38304 101.413 8.92916 96.2453 12.901Z" fill="#374C5B"/>
<path d="M104.375 20.25H108.25V24.125H104.375V20.25Z" fill="#374C5B"/>
<path d="M86.9376 10.5625H90.8126C90.8126 7.35787 93.4204 4.75 96.6251 4.75V0.875C91.2834 0.875 86.9376 5.22081 86.9376 10.5625Z" fill="#374C5B"/>
</svg>
