<svg width="117" height="117" viewBox="0 0 117 117" fill="none" xmlns="http://www.w3.org/2000/svg">
<path d="M115.05 37.0496H101.4C100.323 37.0496 99.4499 37.9227 99.4499 38.9996V44.8495H81.9001V42.8996C81.9001 41.8227 81.027 40.9496 79.9501 40.9496H72.1502V31.1997C72.1502 30.1228 71.2771 29.2497 70.2002 29.2497H64.3503V17.5498H70.0052L81.668 19.8898C86.1869 20.7931 90.5824 17.8621 91.4857 13.3432C92.389 8.82439 89.458 4.42889 84.9391 3.52556C83.8596 3.30985 82.7478 3.30985 81.6683 3.52556L70.0052 5.84994H64.3503V1.94998C64.3503 0.873103 63.4772 0 62.4003 0H54.6004C53.5235 0 52.6504 0.873103 52.6504 1.94998V5.84994H46.9954L35.3307 3.50996C30.8118 2.60127 26.4119 5.52795 25.5033 10.0468C24.5946 14.5656 27.5212 18.9655 32.0401 19.8742C32.5805 19.9829 33.1301 20.0377 33.6812 20.038C34.2353 20.0377 34.7876 19.9829 35.3309 19.8742L46.9954 17.5498H52.6504V29.2497H46.8005C45.7236 29.2497 44.8505 30.1228 44.8505 31.1997V40.9496H37.0506C35.9737 40.9496 35.1006 41.8227 35.1006 42.8996V46.7995H25.3507C11.3571 46.8156 0.0170181 58.1557 0.000930786 72.1492V83.8491C0.000930786 84.926 0.874034 85.7991 1.95091 85.7991H21.4507C22.5276 85.7991 23.4007 84.926 23.4007 83.8491V72.1492C23.4007 71.0724 24.2738 70.1993 25.3507 70.1993H35.1006V74.0992C35.1006 75.1761 35.9737 76.0492 37.0506 76.0492H79.9501C81.027 76.0492 81.9001 75.1761 81.9001 74.0992V72.1492H99.4499V77.9992C99.4499 79.0761 100.323 79.9492 101.4 79.9492H115.05C116.127 79.9492 117 79.0761 117 77.9992V38.9996C117 37.9227 116.127 37.0496 115.05 37.0496ZM64.3503 9.7499H70.2002C70.3313 9.75112 70.462 9.73796 70.5902 9.7109L82.4422 7.34167C84.8492 6.86173 87.1894 8.42391 87.6693 10.8309C88.1493 13.2379 86.5871 15.5781 84.1801 16.0581C83.6063 16.1724 83.0157 16.1724 82.4419 16.0581L70.59 13.6889C70.4618 13.6618 70.3311 13.6486 70.2 13.6499H64.35V9.7499H64.3503ZM35.1006 66.2993H25.3507C22.1198 66.2993 19.5007 68.9184 19.5007 72.1492V81.8991H3.90089V72.1492C3.91478 60.3087 13.5101 50.7134 25.3507 50.6995H35.1006V66.2993ZM56.5504 3.89996H60.4503V5.84994H56.5504V3.89996ZM56.5504 9.7499H60.4503V13.6499H56.5504V9.7499ZM56.5504 17.5498H60.4503V29.2497H56.5504V17.5498ZM46.8005 13.6499C46.6693 13.6486 46.5387 13.6618 46.4105 13.6889L34.5585 16.0581C32.1515 16.538 29.8113 14.9758 29.3313 12.5688C28.8514 10.1618 30.4135 7.82161 32.8206 7.34167C33.3943 7.22736 33.9849 7.22736 34.5587 7.34167L46.4107 9.7109C46.5389 9.73796 46.6696 9.75112 46.8007 9.7499H52.6506V13.6499H46.8005ZM48.7504 33.1497H68.2502V40.9496H48.7504V33.1497ZM78.0001 72.1492H39.0005V44.8495H78.0001V72.1492ZM99.4499 68.2493H81.9001V48.7495H99.4499V68.2493ZM113.1 76.0492H103.35V40.9496H113.1V76.0492Z" fill="#7FBD42"/>
<path d="M20.3858 103.659L13.4185 90.7248C12.8194 89.7759 11.5643 89.4926 10.6157 90.0918C10.3602 90.2531 10.144 90.4693 9.98267 90.7248L3.0154 103.659C1.53634 106.375 1.61068 109.672 3.21039 112.319C5.00949 115.275 8.24061 117.056 11.7006 116.999C15.1606 117.056 18.3917 115.275 20.1908 112.319C21.7905 109.672 21.8649 106.375 20.3858 103.659ZM16.8447 110.318C15.7446 112.092 13.7871 113.15 11.7006 113.099C9.61413 113.15 7.65659 112.092 6.55656 110.318C5.6564 108.851 5.61618 107.013 6.45126 105.508L11.7006 95.7577L16.95 105.508C17.785 107.013 17.7448 108.851 16.8447 110.318Z" fill="#374C5B"/>
</svg>
